<svg width="31" height="30" viewBox="0 0 31 30" fill="none" xmlns="http://www.w3.org/2000/svg">
<path d="M29.9919 11.6371C29.9343 11.3926 29.6912 11.2416 29.4479 11.2998C29.2054 11.3582 29.0557 11.6037 29.1137 11.8481C29.3511 12.8523 29.4717 13.9127 29.4717 15.0003C29.4717 22.769 23.064 29.0893 15.1874 29.0893C7.31082 29.0893 0.903041 22.769 0.903041 15.0003C0.903041 7.23099 7.31082 0.91036 15.1874 0.91036C18.3243 0.91036 21.3208 1.91138 23.8526 3.80526C24.0523 3.955 24.3356 3.9128 24.4841 3.71084C24.6326 3.50889 24.5907 3.22378 24.3905 3.07403C21.7021 1.06261 18.5196 0 15.1874 0C6.81295 0 0 6.72891 0 15.0003C0 23.2711 6.81295 30 15.1874 30C23.5618 30 30.3748 23.2711 30.3748 15.0003C30.3748 13.842 30.2458 12.7107 29.9919 11.6371Z" fill="#80C34E"/>
<path d="M14.8738 21.7783C14.7541 21.7783 14.6394 21.7305 14.5545 21.6452L6.08733 13.1077C5.91094 12.9298 5.91094 12.6416 6.08733 12.4637C6.26342 12.2858 6.54924 12.2858 6.72563 12.4637L14.8549 20.6604L30.2118 3.31415C30.378 3.12657 30.6632 3.11032 30.8492 3.27788C31.0352 3.44545 31.0513 3.73306 30.8855 3.92064L15.2104 21.6264C15.1277 21.7199 15.0105 21.7749 14.8865 21.7783C14.8821 21.7783 14.8781 21.7783 14.8738 21.7783Z" fill="#80C34E"/>
</svg>
